<svg id="_x32_" width="800px" height="800px" version="1.1" viewBox="0 0 512 512" xmlns="http://www.w3.org/2000/svg">
 <style type="text/css">.st0{fill:#000000;}</style>
 <path class="st0" d="m384.55 34.116c-9.687-5.605-24.438-3.721-35.61 22.202-8.907 20.678-13.989 43.375-5.176 48.457 8.793 5.082 25.904-10.668 39.359-28.721 16.863-22.62 11.134-36.342 1.427-41.938zm-255.69 401.83c-16.862 22.621-11.115 36.353-1.408 41.939 9.687 5.605 24.438 3.72 35.592-22.202 8.907-20.679 14.008-43.376 5.196-48.458s-25.904 10.668-39.38 28.721zm326.81-272.89c25.923-11.154 27.808-25.914 22.211-35.601-5.596-9.698-19.318-15.446-41.929 1.418-18.062 13.465-33.821 30.566-28.721 39.378 5.082 8.803 27.77 3.711 48.439-5.195zm-399.36 185.89c-25.922 11.153-27.787 25.922-22.192 35.601 5.596 9.687 19.318 15.444 41.929-1.418 18.044-13.466 33.803-30.567 28.721-39.38-5.082-8.802-27.769-3.71-48.458 5.197zm418.64-112.68c-22.364 2.636-44.556 9.574-44.556 19.737s22.211 17.1 44.556 19.727c28.035 3.302 37.037-8.536 37.037-19.727 0-11.192-9.002-23.03-37.037-19.737zm-393.37 19.737c0-10.164-22.192-17.101-44.556-19.727-28.016-3.303-37.018 8.545-37.018 19.727 0 11.191 9.002 23.029 37.018 19.737 22.364-2.637 44.556-9.574 44.556-19.737zm374.09 92.946c-20.669-8.908-43.357-13.999-48.438-5.197-5.1 8.812 10.659 25.914 28.721 39.38 22.611 16.862 36.333 11.105 41.929 1.418 5.595-9.678 3.71-24.447-22.212-35.601zm-379.63-220.08c-22.611-16.864-36.333-11.106-41.929-1.418-5.596 9.687-3.73 24.447 22.192 35.601 20.689 8.906 43.376 13.998 48.458 5.196 5.082-8.813-10.677-25.914-28.721-39.379zm267.72 278.35c-8.812 5.082-3.712 27.778 5.176 48.458 11.172 25.922 25.923 27.807 35.61 22.202 9.688-5.586 15.436-19.318-1.428-41.939-13.455-18.053-30.546-33.803-39.358-28.721zm-216.33-373.11c-9.688 5.596-15.436 19.319 1.426 41.938 13.476 18.053 30.568 33.803 39.38 28.721s3.711-27.778-5.196-48.457c-11.154-25.923-25.923-27.808-35.61-22.202zm128.56 396.28c-10.182 0-17.11 22.202-19.737 44.565-3.293 28.026 8.546 37.038 19.737 37.038 11.192 0 23.03-9.012 19.718-37.038-2.627-22.363-9.554-44.565-19.718-44.565zm0-430.4c-11.191 0-23.03 9.012-19.737 37.037 2.627 22.364 9.555 44.566 19.737 44.566 10.164 0 17.091-22.202 19.718-44.566 3.312-28.025-8.526-37.037-19.718-37.037z"/>
</svg>
