<svg enable-background="new 0 0 512 512" version="1.1" viewBox="0 0 512 512" xmlns="http://www.w3.org/2000/svg">
 <path d="m34.283 384c17.646 30.626 56.779 41.148 87.405 23.502 0.021-0.012 0.041-0.024 0.062-0.036l9.493-5.483c17.92 15.332 38.518 27.222 60.757 35.072v10.945c0 35.346 28.654 64 64 64s64-28.654 64-64v-10.944c22.242-7.863 42.841-19.767 60.757-35.115l9.536 5.504c30.633 17.673 69.794 7.167 87.467-23.467 17.673-30.633 7.167-69.794-23.467-87.467l-9.472-5.461c4.264-23.201 4.264-46.985 0-70.187l9.472-5.461c30.633-17.673 41.14-56.833 23.467-87.467-17.673-30.633-56.833-41.14-87.467-23.467l-9.493 5.483c-17.938-15.313-38.55-27.181-60.8-35.007v-10.944c0-35.346-28.654-64-64-64s-64 28.654-64 64v10.944c-22.242 7.863-42.841 19.767-60.757 35.115l-9.536-5.525c-30.634-17.674-69.794-7.167-87.467 23.466s-7.167 69.794 23.467 87.467l9.472 5.461c-4.264 23.201-4.264 46.985 0 70.187l-9.472 5.461c-30.549 17.72-41.021 56.804-23.424 87.424zm221.72-213.33c47.128 0 85.333 38.205 85.333 85.333s-38.205 85.333-85.333 85.333-85.333-38.205-85.333-85.333 38.205-85.333 85.333-85.333z"/>
</svg>
